<svg width="17" height="19" viewBox="0 0 17 19" fill="none" xmlns="http://www.w3.org/2000/svg">
<path d="M0.833252 15.0005C0.833252 16.3803 1.95346 17.5005 3.33325 17.5005C4.71304 17.5005 5.83325 16.3803 5.83325 15.0005C5.83325 13.6207 4.71304 12.5005 3.33325 12.5005C1.95346 12.5005 0.833252 13.6207 0.833252 15.0005H0.833252" stroke="url(#paint0_linear_87_4332)" stroke-width="1.66667" stroke-linecap="round" stroke-linejoin="round"/>
<path d="M5.83325 15.0002H12.9166C14.5263 15.0002 15.8333 13.6932 15.8333 12.0835C15.8333 10.4737 14.5263 9.16683 12.9166 9.16683H3.74992C2.14017 9.16683 0.833252 7.85991 0.833252 6.25016C0.833252 4.64041 2.14017 3.3335 3.74992 3.3335H10.8333" stroke="url(#paint1_linear_87_4332)" stroke-width="1.66667" stroke-linecap="round" stroke-linejoin="round"/>
<path d="M10.8333 3.3335C10.8333 4.71328 11.9535 5.8335 13.3333 5.8335C14.713 5.8335 15.8333 4.71328 15.8333 3.3335C15.8333 1.95371 14.713 0.833496 13.3333 0.833496C11.9535 0.833496 10.8333 1.95371 10.8333 3.3335V3.3335" stroke="url(#paint2_linear_87_4332)" stroke-width="1.66667" stroke-linecap="round" stroke-linejoin="round"/>
<defs>
<linearGradient id="paint0_linear_87_4332" x1="3.33325" y1="12.5005" x2="3.33325" y2="17.5005" gradientUnits="userSpaceOnUse">
<stop stop-color="#0B61CA"/>
<stop offset="1" stop-color="#02499D"/>
</linearGradient>
<linearGradient id="paint1_linear_87_4332" x1="8.33325" y1="3.3335" x2="8.33325" y2="15.0002" gradientUnits="userSpaceOnUse">
<stop stop-color="#0B61CA"/>
<stop offset="1" stop-color="#02499D"/>
</linearGradient>
<linearGradient id="paint2_linear_87_4332" x1="13.3333" y1="0.833496" x2="13.3333" y2="5.8335" gradientUnits="userSpaceOnUse">
<stop stop-color="#0B61CA"/>
<stop offset="1" stop-color="#02499D"/>
</linearGradient>
</defs>
</svg>
